<?xml version="1.0" encoding="UTF-8" standalone="no"?>
<svg
   xmlns:dc="http://purl.org/dc/elements/1.1/"
   xmlns:cc="http://creativecommons.org/ns#"
   xmlns:rdf="http://www.w3.org/1999/02/22-rdf-syntax-ns#"
   xmlns:svg="http://www.w3.org/2000/svg"
   xmlns="http://www.w3.org/2000/svg"
   xmlns:xlink="http://www.w3.org/1999/xlink"
   xmlns:sodipodi="http://sodipodi.sourceforge.net/DTD/sodipodi-0.dtd"
   xmlns:inkscape="http://www.inkscape.org/namespaces/inkscape"
   version="1.1"
   id="Kofi"
   x="0px"
   y="0px"
   width="2600"
   height="2000"
   viewBox="0 0 2600 2000"
   enable-background="new 0 0 600 600"
   xml:space="preserve"
   sodipodi:docname="kofi.svg"
   inkscape:version="0.92.4 (5da689c313, 2019-01-14)"><defs
     id="defs6"><clipPath
       clipPathUnits="userSpaceOnUse"
       id="clipPath4698"><use
         x="0"
         y="0"
         xlink:href="#g4694"
         id="use4700"
         width="100%"
         height="100%"
         transform="matrix(1,0,0,0.81638124,0,-907.24777)" /></clipPath></defs><sodipodi:namedview
     pagecolor="#ffffff"
     bordercolor="#666666"
     borderopacity="1"
     objecttolerance="10"
     gridtolerance="10"
     guidetolerance="10"
     inkscape:pageopacity="0"
     inkscape:pageshadow="2"
     inkscape:window-width="1920"
     inkscape:window-height="1017"
     id="namedview4"
     showgrid="false"
     inkscape:zoom="0.19666666"
     inkscape:cx="398.2733"
     inkscape:cy="988.0284"
     inkscape:window-x="-8"
     inkscape:window-y="-8"
     inkscape:window-maximized="1"
     inkscape:current-layer="g4694"
     inkscape:pagecheckerboard="true" /><metadata
     id="metadata4740"><rdf:RDF><cc:Work
         rdf:about=""><dc:title /><dc:format>image/svg+xml</dc:format><dc:type
           rdf:resource="http://purl.org/dc/dcmitype/StillImage" /></cc:Work></rdf:RDF></metadata><g
     id="g4694"
     inkscape:label="Clip"
     transform="matrix(1.8203535,0,0,1.8603862,-10.165767,660.0828)"><path
       style="fill:#ffffff;fill-opacity:1;stroke:none;stroke-width:3.24671745"
       d="m 152.01351,690.34174 c -18.20886,-2.12 -46.06017,-11.55895 -64.380421,-21.8189 C 63.317474,654.9053 33.80199,621.94845 22.882583,596.22273 5.3184501,554.84227 5.7085668,565.40615 5.6504246,129.61262 L 5.5969076,-271.46482 5.0937786,-291.41 c -0.2792078,-11.06903 0.013267,-22.16539 9.6818094,-26.55615 9.34832,-4.24547 27.913012,-1.9217 37.276281,-4.50012 148.766761,-4.81718 240.681211,-2.56503 514.646331,-1.27807 80.00988,0.37581 459.7692,-2.59002 579.4071,0.97882 131.2738,3.91597 257.1444,159.85059 279.1332,321.6728047 14.0069,103.0820253 -4.7945,199.5105953 -54.9221,281.6843953 -25.9111,42.47552 -79.9856,93.26042 -127.1137,119.3806 -45.4353,25.18189 -109.197,42.43066 -169.3531,45.81311 l -38.2738,2.15205 -2.0388,25.98753 c -8.2224,104.79937 -52.02705,174.59553 -128.45881,204.67987 -19.82739,7.80429 -28.24066,8.99594 -70.30087,9.9573 -66.56904,1.5215 -671.43902,3.0981 -682.76381,1.7796 z m 678.14011,-25.76295 c 44.37535,-1.0214 51.39732,-2.02843 70.04894,-10.04604 71.87152,-30.8946 106.53624,-92.0076 112.43634,-198.22184 l 1.8521,-33.3424 h 28.9391 c 151.1941,0 274.0069,-73.40639 330.3951,-197.48022 21.6954,-47.73748 30.5097,-85.17801 33.2118,-141.073446 2.3345,-48.293543 -2.1225,-89.2546393 -14.6983,-135.079506 -21.422,-78.059768 -62.0105,-146.035198 -112.5765,-189.226468 -40.5387,-34.62654 -77.2196,-51.81309 -140.7925,-59.28904 -19.1951,-2.25729 -241.52702,2.02571 -572.50205,2.66489 -485.800817,0.93814 -510.689584,-3.49386 -518.770215,2.38044 -4.66832,3.39369 -11.190672,11.0881 -14.494063,17.09863 -5.862742,10.66726 -6.00542,20.4056 -5.97221,407.61744 0.03665,426.21093 -0.275132,417.17014 15.682722,454.83368 17.701951,41.77995 64.838286,75.8338 112.182076,81.0464 11.78544,1.29756 609.28664,-0.36865 675.05766,-1.88252 z M 1018.9316,256.80157 c -1.2592,-1.39698 -2.2893,-90.16835 -2.2893,-197.269745 V -135.19805 l 56.2547,1.58473 c 47.237,1.33061 59.1383,2.74786 74.2428,8.84085 55.1595,22.25059 90.8165,65.060412 105.09,126.1709237 10.8893,46.6212933 3.0736,119.5534163 -17.4711,163.0310663 -14.7786,31.27524 -45.6739,60.97795 -76.8127,77.98284 -24.6609,13.46717 -50.684,19.90108 -81.2183,15.8141 -30.5287,0.61325 -56.5369,-0.0275 -57.7961,-1.42489 z m 131.2797,-36.67753 c 55.6557,-30.54572 85.3456,-88.42128 85.2487,-166.178892 -0.1029,-82.403034 -39.5334,-139.58671 -109.8836,-159.356788 -12.9249,-3.63218 -29.6572,-5.02506 -52.4018,-4.36222 l -33.414,0.97375 -0.7993,172.094408 -0.7991,172.094452 44.1363,-1.10771 c 44.0788,-1.10632 44.1675,-1.12483 67.9128,-14.157 z"
       id="main"
       inkscape:connector-curvature="0"
       sodipodi:nodetypes="sssscssccssssscssssscscsssssssccsssscscssssaccsssscccss" /><path
       style="fill:#ffffff;fill-opacity:1;stroke:none;stroke-width:2.68400145;stroke-opacity:1"
       d="m 872.53611,-299.26296 c -273.38228,0.73175 -546.76418,1.58404 -820.146341,2.35779 -13.257022,6.64989 -22.879399,18.53248 -22.05737,33.02564 -5.9412,109.02357 -2.464155,218.316502 -3.840147,327.447434 0.658091,153.829376 -2.983127,307.769046 3.338327,461.521066 -0.97973,49.83299 26.130376,100.05549 73.671531,125.27125 32.2186,21.045 72.91474,15.0234 109.89834,16.55681 210.05837,0.256 420.17365,1.66376 630.19535,-2.2415 21.33743,-0.44072 43.23222,0.90104 61.33381,-11.43715 53.98423,-25.1207 89.81506,-75.96849 99.24499,-130.29203 6.8331,-32.97141 9.4391,-66.5114 12.5797,-99.90535 86.6884,4.04112 176.9235,-14.11013 246.3602,-63.91196 82.9563,-58.2182 133.3401,-151.40102 142.7222,-246.16829 1.6384,-57.282584 4.7868,-115.9212013 -14.8401,-171.211853 -24.9701,-82.302467 -71.4953,-163.835657 -151.861,-210.964027 -32.7968,-20.30122 -72.0432,-29.61473 -111.4,-28.67172 -85.0372,-2.26255 -170.13816,-1.27946 -255.19949,-1.37611 z m 176.90139,166.4218 c 46.4432,-0.0236 98.018,-0.20605 134.816,29.72019 53.6076,38.196809 74.5227,103.6633007 70.1222,164.190553 -1.3004,56.524587 -15.0658,118.513417 -64.1918,157.144567 -25.7472,22.28314 -58.4513,40.97003 -95.2374,38.77384 -25.2128,0.81429 -50.4375,-0.2486 -75.623,-1.29378 v -388.61579 l 30.114,0.0804 z m -400.76837,44.842988 c 70.29948,-0.40098 134.95723,49.960992 146.50313,113.851926 14.03171,66.346462 -16.97433,132.988836 -64.74869,182.126926 -67.20681,72.70962 -136.87396,156.78176 -212.44894,222.22983 -5.3327,6.41089 -13.80902,7.59167 -19.29068,0.73401 C 425.01655,367.18826 356.24456,285.89519 289.51485,216.01922 252.38968,178.07394 222.53048,131.19005 221.09278,78.986651 217.24002,42.764565 218.36516,3.8663277 241.7063,-27.319393 c 35.2393,-53.285989 113.47165,-72.983367 175.12483,-49.930529 33.63442,11.016791 62.12463,30.906017 89.06839,51.986677 13.89353,-3.214628 23.71779,-16.994564 36.11057,-24.120707 30.7283,-21.829794 67.32692,-38.5069 106.65904,-38.61422 z"
       id="path5299"
       inkscape:connector-curvature="0"
       sodipodi:nodetypes="cccccccccccccccccccccccccccccccccccccc" /></g></svg>