<?xml version="1.0" encoding="UTF-8" standalone="no"?>
<svg
   xmlns:dc="http://purl.org/dc/elements/1.1/"
   xmlns:cc="http://creativecommons.org/ns#"
   xmlns:rdf="http://www.w3.org/1999/02/22-rdf-syntax-ns#"
   xmlns:svg="http://www.w3.org/2000/svg"
   xmlns="http://www.w3.org/2000/svg"
   xmlns:sodipodi="http://sodipodi.sourceforge.net/DTD/sodipodi-0.dtd"
   xmlns:inkscape="http://www.inkscape.org/namespaces/inkscape"
   id="Layer_1"
   data-name="Layer 1"
   viewBox="0 0 600 600"
   version="1.1"
   sodipodi:docname="DDsimple.svg"
   inkscape:version="0.92.4 (5da689c313, 2019-01-14)">
  <metadata
     id="metadata31">
    <rdf:RDF>
      <cc:Work
         rdf:about="">
        <dc:format>image/svg+xml</dc:format>
        <dc:type
           rdf:resource="http://purl.org/dc/dcmitype/StillImage" />
        <dc:title>DDsimple</dc:title>
      </cc:Work>
    </rdf:RDF>
  </metadata>
  <sodipodi:namedview
     pagecolor="#ffffff"
     bordercolor="#666666"
     borderopacity="1"
     objecttolerance="10"
     gridtolerance="10"
     guidetolerance="10"
     inkscape:pageopacity="0"
     inkscape:pageshadow="2"
     inkscape:window-width="1920"
     inkscape:window-height="1017"
     id="namedview29"
     showgrid="false"
     inkscape:zoom="0.55625735"
     inkscape:cx="-245.26868"
     inkscape:cy="353.26274"
     inkscape:window-x="-8"
     inkscape:window-y="-8"
     inkscape:window-maximized="1"
     inkscape:current-layer="Layer_1"
     inkscape:pagecheckerboard="true" />
  <defs
     id="defs4">
    <style
       id="style2">.cls-1{fill:#fff;}</style>
  </defs>
  <title
     id="title6">DDsimple</title>
  <path
     d="m 299.96795,549.80354 q -120.1116,0 -240.214793,0 a 11.977516,11.977516 0 0 1 -5.669133,-1.11869 c -2.817744,-1.47195 -3.625217,-4.14671 -3.885964,-7.0738 -0.05047,-0.53831 0,-1.07663 0,-1.61494 q 0,-240.01294 0,-480.017455 a 12.709288,12.709288 0 0 1 1.085042,-5.88783 c 1.421489,-2.81774 4.087832,-3.583158 7.031744,-3.919605 0.597193,-0.05888 1.211209,0 1.816814,0 q 239.91199,0 479.80717,0 a 20.287759,20.287759 0 0 1 4.38223,0.546727 6.0981033,6.0981033 0 0 1 4.94577,4.962598 19.421408,19.421408 0 0 1 0.53831,4.20558 q 0,240.113865 0,480.219325 a 12.28873,12.28873 0 0 1 -1.13551,5.88783 c -1.49718,2.79251 -4.20558,3.59998 -7.10744,3.83549 -0.74018,0.0589 -1.48037,0 -2.22055,0 z M 65.397057,534.73071 H 524.06694 c 0.0505,-0.14299 0.10094,-0.29439 0.15981,-0.44579 -0.50467,-0.51308 -0.99251,-1.03458 -1.49719,-1.53925 q -40.60075,-40.60075 -81.19309,-81.24356 a 5.4420315,5.4420315 0 0 0 -4.20558,-1.74952 q -56.42218,0.0757 -112.84436,0 a 18.933559,18.933559 0 0 1 -4.20558,-0.49626 6.1149257,6.1149257 0 0 1 -4.84484,-4.82802 20.245703,20.245703 0 0 1 -0.50467,-4.38222 q 0,-56.52311 0,-113.04622 a 4.5252132,4.5252132 0 0 0 -1.43831,-3.5411 Q 299.51375,309.60556 285.6269,295.65142 c -0.4458,-0.4458 -0.94205,-0.84112 -1.68224,-1.53084 v 2.57382 q -0.12617,38.04376 -0.24392,76.08751 a 145.22738,145.22738 0 0 1 -1.36261,20.48963 c -1.00934,6.98968 -3.06167,13.60928 -6.98128,19.58122 a 92.47248,92.47248 0 0 1 -14.54293,17.47001 c -7.93174,7.3009 -16.88123,12.86069 -27.26062,15.98124 a 82.202433,82.202433 0 0 1 -23.63541,3.53269 q -63.28569,-0.10934 -126.571381,0 c -0.740184,0 -1.480368,0 -2.220551,0 -2.885034,-0.2271 -5.442032,-1.16915 -6.821465,-3.91961 a 12.616765,12.616765 0 0 1 -1.059808,-5.69436 q 0,-153.31894 0,-306.62946 c 0,-0.47103 0,-0.95046 0,-1.41308 0.277569,-2.82615 0.950463,-5.47568 3.667273,-6.9981 a 10.833596,10.833596 0 0 1 5.433621,-1.22803 h 28.867151 c 0.69813,0 1.40467,-0.0589 2.1028,-0.0841 l 0.18504,-0.41215 -47.598842,-47.893235 -0.504671,0.35327 z M 314.43518,303.1626 l 0.44579,-0.1514 v -2.52336 q 0,-83.37158 0,-166.75158 a 21.027942,21.027942 0 0 1 0.5299,-4.57568 5.8878239,5.8878239 0 0 1 4.35699,-4.57568 16.822354,16.822354 0 0 1 4.55886,-0.6729 q 58.23899,-0.0505 116.46957,0 c 7.79716,0 15.60273,0 23.39989,0.28598 a 131.05455,131.05455 0 0 1 14.62704,1.32056 47.539972,47.539972 0 0 1 14.299,4.11306 64.614662,64.614662 0 0 1 20.68309,16.16629 40.827853,40.827853 0 0 1 9.25229,17.9158 109.16867,109.16867 0 0 1 2.4056,23.81205 q 0.0925,79.023 0,158.05442 c 0,9.48781 -0.0925,18.97562 -0.1514,28.45501 a 139.74329,139.74329 0 0 1 -1.21121,18.08403 c -0.77383,5.61026 -1.94299,11.11958 -4.60092,16.20834 a 82.942616,82.942616 0 0 1 -17.40272,22.31486 70.704354,70.704354 0 0 1 -38.1531,18.26907 c -0.96729,0.14299 -1.91775,0.33645 -2.96074,0.52991 a 3.0448461,3.0448461 0 0 0 0.35327,0.65607 l 72.83239,72.75668 a 0.24392413,0.24392413 0 0 0 0.17663,0 0.89999594,0.89999594 0 0 0 0.19346,-0.0841 V 65.378635 c -0.50467,-0.0421 -0.89159,-0.0925 -1.2785,-0.0925 q -228.00178,0 -456.003543,0.0757 c 0,0 -0.100935,0.0673 -0.134579,0.11776 -0.03364,0.0505 -0.05047,0.11775 -0.227102,0.52149 a 14.43358,14.43358 0 0 1 1.471956,1.16074 Q 105.83799,94.565441 133.20796,122.0027 a 5.8878239,5.8878239 0 0 0 4.57568,1.93457 q 35.93255,-0.10094 71.8651,0 c 4.20558,0 8.33547,0.0673 12.49059,0.26074 4.15512,0.19346 8.41118,0.47103 12.61677,0.95888 a 51.838084,51.838084 0 0 1 14.8289,3.68409 62.419344,62.419344 0 0 1 23.9298,18.67282 41.500747,41.500747 0 0 1 8.1252,17.36908 c 1.7327,7.94015 2.15326,15.98123 2.19532,24.03073 0.13458,27.18492 0.0673,54.36985 0,81.58842 a 4.9205385,4.9205385 0 0 0 1.62335,3.86073 c 9.1766,9.09248 18.29431,18.25225 27.42885,27.38679 0.55514,0.42897 1.07663,0.91682 1.54766,1.41308 z m 93.7678,93.58275 c 0.53831,0.63925 0.76542,0.95046 1.03457,1.21962 q 17.9074,17.91581 35.80638,35.84003 a 3.1121355,3.1121355 0 0 0 2.52336,0.97569 c 2.08597,-0.0589 4.20559,0 6.25791,0 a 56.893201,56.893201 0 0 0 23.95504,-5.58502 c 11.12798,-5.35792 19.47187,-13.75227 26.16717,-23.91297 a 30.608273,30.608273 0 0 0 4.96259,-12.44013 163.41235,163.41235 0 0 0 1.5056,-23.73635 q 0.0925,-87.59399 0.0421,-175.20481 c 0,-6.72894 -0.21028,-13.45789 -0.84112,-20.12795 -0.58037,-6.37567 -2.34672,-12.27191 -6.51866,-17.25973 a 51.939018,51.939018 0 0 0 -13.17191,-11.48126 33.560596,33.560596 0 0 0 -11.77564,-4.55886 117.75648,117.75648 0 0 0 -19.04291,-1.52242 q -63.16794,-0.10094 -126.3527,0 c -0.47102,0 -0.94205,0 -1.41308,0 -0.47102,0 -0.88317,0.12617 -1.4299,0.21869 v 176.88705 a 9.6896759,9.6896759 0 0 1 0,1.21121 2.8177443,2.8177443 0 0 0 1.04299,2.47289 q 23.21485,23.16438 46.40446,46.3624 a 13.962554,13.962554 0 0 0 1.32056,0.98411 v -2.91868 q 0,-88.92296 0,-177.8291 c 0,-6.51025 2.81774,-9.31117 9.35323,-9.31117 q 17.96627,0 35.93254,0 a 67.600629,67.600629 0 0 1 17.74759,2.14485 c 7.51959,2.00186 13.19713,6.27473 16.58684,13.29807 a 39.641877,39.641877 0 0 1 3.76821,17.39431 q 0.0505,73.17724 0,146.35448 a 56.354886,56.354886 0 0 1 -2.96074,18.18497 c -2.98597,8.83173 -8.62987,15.45133 -17.3102,19.14383 a 41.769905,41.769905 0 0 1 -15.72049,3.17102 c -5.82053,0.10093 -11.60742,0.0252 -17.87375,0.0252 z M 88.35957,434.76387 h 2.817744 q 58.945526,0 117.891046,0 c 2.88504,0 5.77848,-0.13458 8.64669,-0.40373 a 54.67265,54.67265 0 0 0 28.59801,-11.50649 70.956689,70.956689 0 0 0 14.00461,-14.69433 c 3.86073,-5.28222 6.56912,-11.01864 7.29249,-17.66347 a 228.82607,228.82607 0 0 0 1.21962,-23.13074 c 0.15981,-18.15973 0.0505,-36.32787 0.0505,-54.49602 0,-10.63172 0,-21.26345 0,-31.89518 a 4.2560556,4.2560556 0 0 0 -1.48036,-3.52428 c -1.59813,-1.44672 -3.06167,-3.02803 -4.5841,-4.55045 q -20.26256,-20.26252 -40.54191,-40.52505 c -0.47944,-0.47102 -0.84112,-1.17756 -1.78317,-1.22803 v 2.52335 q 0,60.15674 0,120.27983 a 63.083827,63.083827 0 0 1 -0.79065,10.8336 c -0.94205,5.38315 -2.17008,10.67378 -4.93736,15.47656 a 30.061547,30.061547 0 0 1 -17.1588,14.17284 46.404463,46.404463 0 0 1 -14.46722,2.31307 q -10.69902,0 -21.39804,0 c -5.38315,0 -10.76631,0.0673 -16.14946,0 -3.07008,-0.0505 -5.88782,-0.84112 -7.49435,-3.82708 a 11.775648,11.775648 0 0 1 -1.13551,-5.66914 q 0,-100.32852 0,-200.64862 c 0,-0.47103 0,-0.94206 0,-1.41308 0.26915,-2.83457 1.00093,-5.46727 3.70091,-6.98128 a 10.446682,10.446682 0 0 1 5.24858,-1.16074 q 9.25229,0 18.57187,0 c 0.61402,0 1.32056,0.26916 1.92616,-0.41215 -0.3028,-0.33645 -0.54672,-0.63925 -0.84111,-0.91682 Q 147.72565,157.85951 129.89396,140.011 a 3.4485826,3.4485826 0 0 0 -2.66635,-1.08505 c -12.44854,0 -24.89708,0 -37.345617,0 a 14.86255,14.86255 0 0 0 -1.614946,0.16823 z M 393.87874,192.05095 v 189.66363 h 2.32149 c 7.40184,0 14.80367,0 22.20551,0 3.42335,0 6.85511,0 10.27004,-0.26916 7.57006,-0.55514 13.04574,-4.07942 15.98124,-11.30462 a 36.168061,36.168061 0 0 0 2.43924,-13.60929 q 0.0505,-43.99886 0,-87.99773 0,-29.16155 0,-58.33151 a 25.233531,25.233531 0 0 0 -1.78317,-10.09341 c -0.84112,-1.9514 -1.91775,-3.81868 -3.82708,-4.80279 a 21.742893,21.742893 0 0 0 -6.1654,-2.34671 70.182861,70.182861 0 0 0 -10.62331,-0.9 c -9.48781,-0.11776 -18.97562,-0.0421 -28.45501,-0.0421 z M 152.17516,381.71458 c 3.61681,0 6.98128,0 10.33734,0 8.2009,-0.0673 16.41021,0.0673 24.59428,-0.31963 7.00651,-0.31962 12.3392,-3.60839 15.40928,-10.24481 a 35.074608,35.074608 0 0 0 2.95232,-14.90461 q 0.10093,-69.41744 0.0589,-138.78442 a 4.0962432,4.0962432 0 0 0 -1.2785,-3.19624 Q 193.70116,203.83501 183.2713,193.28739 a 3.8691414,3.8691414 0 0 0 -3.0112,-1.21962 c -8.68033,0.0505 -17.35226,0 -26.03259,0 -0.65607,0 -1.30373,0.0505 -2.05233,0.0841 z m -1.24485,-242.79704 -0.21869,0.42056 c 0.44579,0.48785 0.84112,0.98411 1.33738,1.44673 q 17.48683,17.48683 34.94844,34.9989 a 5.8878239,5.8878239 0 0 0 3.50746,1.68224 97.435074,97.435074 0 0 1 9.88313,1.85887 c 9.54669,2.62429 15.70367,8.77286 18.15973,18.40365 0.79065,3.11214 1.24485,6.3168 1.74953,9.49622 a 6.1149257,6.1149257 0 0 0 1.76634,3.65886 q 22.47467,22.35691 44.83999,44.78952 c 0.50467,0.50467 1.02616,1.00093 1.83363,1.77476 0.0673,-0.99252 0.1514,-1.56448 0.1514,-2.13644 -0.0757,-23.20644 -0.11775,-46.41287 -0.27756,-69.61931 0,-4.49157 -0.4458,-8.98314 -0.84112,-13.45788 a 28.345666,28.345666 0 0 0 -6.53549,-15.98124 52.662379,52.662379 0 0 0 -9.38687,-8.81491 36.117594,36.117594 0 0 0 -15.30834,-6.89717 114.27425,114.27425 0 0 0 -18.83263,-1.5813 c -21.5999,-0.11776 -43.1998,0 -64.76606,0 z m 273.58194,295.7454 c -0.61401,-0.68131 -0.95887,-1.08504 -1.32896,-1.45514 q -17.61301,-17.66347 -35.2176,-35.25965 a 5.6354886,5.6354886 0 0 0 -2.75887,-1.49719 11.102754,11.102754 0 0 1 -2.83457,-0.93364 6.4513727,6.4513727 0 0 1 -3.28877,-4.5925 5.5681992,5.5681992 0 0 0 -1.37943,-3.24672 q -23.30737,-23.21485 -46.53904,-46.48016 a 7.6794046,7.6794046 0 0 0 -1.09345,-0.77383 v 94.20518 z"
     id="path10"
     inkscape:connector-curvature="0"
     style="stroke-width:0.84111768;fill:#ffffff;fill-opacity:1" />
</svg>
