<?xml version="1.0" encoding="UTF-8" standalone="no"?>
<svg
   xmlns:dc="http://purl.org/dc/elements/1.1/"
   xmlns:cc="http://creativecommons.org/ns#"
   xmlns:rdf="http://www.w3.org/1999/02/22-rdf-syntax-ns#"
   xmlns:svg="http://www.w3.org/2000/svg"
   xmlns="http://www.w3.org/2000/svg"
   xmlns:sodipodi="http://sodipodi.sourceforge.net/DTD/sodipodi-0.dtd"
   xmlns:inkscape="http://www.inkscape.org/namespaces/inkscape"
   viewBox="0 0 506.3 506.29"
   version="1.1"
   id="svg91"
   sodipodi:docname="DPNlogo.svg"
   inkscape:version="0.92.4 (5da689c313, 2019-01-14)">
  <metadata
     id="metadata95">
    <rdf:RDF>
      <cc:Work
         rdf:about="">
        <dc:format>image/svg+xml</dc:format>
        <dc:type
           rdf:resource="http://purl.org/dc/dcmitype/StillImage" />
        <dc:title>Asset 1</dc:title>
      </cc:Work>
    </rdf:RDF>
  </metadata>
  <sodipodi:namedview
     pagecolor="#ffffff"
     bordercolor="#666666"
     borderopacity="1"
     objecttolerance="10"
     gridtolerance="10"
     guidetolerance="10"
     inkscape:pageopacity="0"
     inkscape:pageshadow="2"
     inkscape:window-width="1920"
     inkscape:window-height="1017"
     id="namedview93"
     showgrid="false"
     inkscape:pagecheckerboard="true"
     inkscape:zoom="1.6749294"
     inkscape:cx="227.47727"
     inkscape:cy="253.145"
     inkscape:window-x="-8"
     inkscape:window-y="-8"
     inkscape:window-maximized="1"
     inkscape:current-layer="Layer_2" />
  <defs
     id="defs63">
    <style
       id="style61">.cls-1{fill:#fefefe;}.cls-2{fill:#a48cc0;}.cls-3{fill:#2ca198;}.cls-4{fill:#2aa098;}.cls-5{fill:#6c71c3;}.cls-6{fill:#c13278;}.cls-7{fill:#a58abf;}</style>
  </defs>
  <title
     id="title65">Asset 1</title>
  <g
     id="Layer_2"
     data-name="Layer 2">
    <g
       id="Layer_1-2"
       data-name="Layer 1">
      <path
         class="cls-2"
         d="M54.64,344.84c-11.12-2.66-22.19-5.55-33.38-7.87-5.6-1.17-6.64-3.82-5.45-9.05C31.66,258.13,47.29,188.29,63.14,118.5c5-22.13,5.35-22.53,27.46-17.66,68.3,15,136.51,30.46,204.75,45.76,22,4.94,44,10,66,15,1.07,12.95-3.13,25.2-5.19,37.71-6,36.35-12.48,72.62-18.66,108.94-.44,2.61-3.5,7.76,2.5,6.94s15.24,5.53,17.37-4.69c4.74-22.64,8.07-45.58,12.22-68.36,2.21-12.18,3.05-24.73,8.66-39.11,8.18,18.27,15.27,34,22.24,49.73,8.33,18.84,16.77,37.64,24.73,56.64,3.85,9.18,11.43,5.35,17.74,6.08,4.79.56,6.28-2.93,6.93-6.63,5.43-30.82,10.52-61.71,16.26-92.48,1.82-9.76,1.06-20.21,6.74-29.1,7.71,1.44,15.42,2.86,23.12,4.33,6.34,1.21,5,5.42,4,9.84q-13.62,60.3-27.1,120.65c-7.55,33.51-15.59,66.92-22.5,100.56-1.77,8.64-5.23,9.82-12.56,8.15q-83.25-19-166.56-37.67c-19.46-4.4-38.93-8.79-58.43-13-3.27-.71-6.36-1.46-9-3.64,5-1.78,10.2-1.92,15.47-1.91q108.56.07,217.1,0,4.42,0,8.84-.11c3.85-.1,4.78-2.53,4.95-5.89.27-5.58-3.1-6.12-7.55-6.38-12-.69-24.16,2.1-36-1.76,5.38-11.11,3.75-13.22-8.82-13.88-10.24-.55-20.77,2.65-30.73-2.05,5.17-11.25,3.71-13.75-8.58-13.76q-147.84-.06-295.69,0c-11.41,0-13,3.1-7.47,13.77Zm30.7-29.37v0c7.86,0,15.75.47,23.57-.09,20.58-1.48,38.94-8.38,52.31-24.84,19.36-23.86,24.29-51.45,18.87-81.07-4.33-23.6-21.79-44.14-46.22-46.84-14.74-1.62-29.43,0-44.05-1.25-8.9-.79-10.95,3.61-12.16,11-4.09,25.05-8.71,50-13.06,75C61,267.91,57.68,288.47,53.94,309c-1,5.39.71,6.8,5.86,6.6C68.3,315.23,76.83,315.47,85.34,315.47ZM262.63,161.62c-9.47,0-17.41.62-25.2-.17-8.28-.84-10.77,3.16-12,10.31-3.58,21.5-7.62,42.92-11.34,64.4-4.17,24-8.27,48.11-12.13,72.21-.39,2.39-3,7.73,3.15,6.7,5.59-.93,14.2,5,16.32-4.9,3.28-15.26,5.83-30.7,7.91-46.17.94-7,3.85-9.9,10.67-9.81,10.49.14,21,.05,31.48,0,32.39-.06,52.07-16.36,56-48.26,2.08-16.75-6.88-38.65-30.32-42.64C285.09,161.26,273.08,162.2,262.63,161.62Z"
         transform="translate(-0.96 -0.06)"
         id="path69"
         style="fill:#ffffff;fill-opacity:1" />
      <path
         class="cls-3"
         d="M472.85,187.25c-5.68,8.89-4.92,19.34-6.74,29.1-5.74,30.77-10.83,61.66-16.26,92.48-.65,3.7-2.14,7.19-6.93,6.63-6.31-.73-13.89,3.1-17.74-6.08-8-19-16.4-37.8-24.73-56.64-7-15.76-14.06-31.46-22.24-49.73-5.61,14.38-6.45,26.93-8.66,39.11-4.15,22.78-7.48,45.72-12.22,68.36-2.13,10.22-11.47,3.89-17.37,4.69s-2.94-4.33-2.5-6.94c6.18-36.32,12.68-72.59,18.66-108.94,2.06-12.51,6.26-24.76,5.19-37.71,14.68-4.25,21.57-2.63,25.92,6.1.46,2.2.54,4.57,1.42,6.59q13.82,31.92,27.87,63.75c5.21,11.82,10.55,23.59,16.64,37.18,5.61-12.63,5.9-24.14,7.77-35.18,3.31-19.55,8.82-38.78,8.88-58.82.82-4.44,1.86-8.86,2.39-13.34.66-5.69,2.85-8.17,9.26-8.07,16,.24,16-.16,13,15.93C473.73,179.53,473.37,183.41,472.85,187.25Z"
         transform="translate(-0.96 -0.06)"
         id="path71"
         style="fill:#000000;fill-opacity:1" />
      <path
         class="cls-4"
         d="M406.72,360.43c11.83,3.86,24,1.07,36,1.76,4.45.26,7.82.8,7.55,6.38-.17,3.36-1.1,5.79-4.95,5.89q-4.41.1-8.84.11-108.54,0-217.1,0c-5.27,0-10.45.13-15.47,1.91q-71.09-.09-142.17-.18c-4.36,0-8.78.19-10.79-4.73-1.93-4.72.43-8.14,4-11Z"
         transform="translate(-0.96 -0.06)"
         id="path73"
         style="fill:#000000;fill-opacity:1" />
      <path
         class="cls-5"
         d="M406.72,360.43,55,360.55c-5.85-5.12-5.83-10.36-.32-15.71l.78-.32c28.19.08,56.38.24,84.57.23q113.59-.08,227.18-.25c10,4.7,20.49,1.5,30.73,2.05C410.47,347.21,412.1,349.32,406.72,360.43Z"
         transform="translate(-0.96 -0.06)"
         id="path75"
         style="fill:#000000;fill-opacity:1" />
      <path
         class="cls-2"
         d="M449.81,181.2c-.06,20-5.57,39.27-8.88,58.82-1.87,11-2.16,22.55-7.77,35.18-6.09-13.59-11.43-25.36-16.64-37.18q-14-31.85-27.87-63.75c-.88-2-1-4.39-1.42-6.59Z"
         transform="translate(-0.96 -0.06)"
         id="path77"
         style="fill:#fefefe;fill-opacity:1" />
      <path
         class="cls-6"
         d="M85.34,315.47c-8.51,0-17-.24-25.54.09-5.15.2-6.85-1.21-5.86-6.6,3.74-20.49,7.08-41,10.66-61.57,4.35-25,9-50,13.06-75,1.21-7.43,3.26-11.83,12.16-11,14.62,1.3,29.31-.37,44.05,1.25,24.43,2.7,41.89,23.24,46.22,46.84,5.42,29.62.49,57.21-18.87,81.07-13.37,16.46-31.73,23.36-52.31,24.84-7.82.56-15.71.09-23.57.09Zm9.58-18.21c16.21,0,26.72-2.26,35-7.51,22.31-14.21,34.7-44.86,29.72-71-4.71-24.78-19.92-40.3-46.24-37.39a49.36,49.36,0,0,1-8.85,0c-5.51-.39-8,1.51-9,7.49-4.91,29.91-10.5,59.71-15.62,89.59C76.69,297.23,76.87,297.26,94.92,297.26Z"
         transform="translate(-0.96 -0.06)"
         id="path79"
         style="fill:#000000;fill-opacity:1" />
      <path
         class="cls-5"
         d="M262.63,161.62c10.45.58,22.46-.36,34.59,1.7,23.44,4,32.4,25.89,30.32,42.64-3.94,31.9-23.62,48.2-56,48.26-10.49,0-21,.11-31.48,0-6.82-.09-9.73,2.84-10.67,9.81-2.08,15.47-4.63,30.91-7.91,46.17-2.12,9.88-10.73,4-16.32,4.9-6.14,1-3.54-4.31-3.15-6.7,3.86-24.1,8-48.16,12.13-72.21,3.72-21.48,7.76-42.9,11.34-64.4,1.19-7.15,3.68-11.15,12-10.31C245.22,162.24,253.16,161.62,262.63,161.62Zm-2.72,74.79c4.58,0,9.16-.13,13.74,0,11,.36,19.56-4.14,26.4-12.45,14.74-17.92,7.09-40.72-15.52-44-11.54-1.65-23.49-.5-35.26-.48-4,0-5.37,2.5-6,6.29-1.65,9.92-3.87,19.74-5.61,29.65-3.68,20.92-3.61,20.94,18.32,20.94Z"
         transform="translate(-0.96 -0.06)"
         id="path81"
         style="fill:#000000;fill-opacity:1" />
      <path
         class="cls-6"
         d="M367.17,344.5q-113.58.12-227.18.25c-28.19,0-56.38-.15-84.57-.23-5.52-10.67-3.93-13.77,7.48-13.77q147.84-.08,295.69,0C370.88,330.75,372.34,333.25,367.17,344.5Z"
         transform="translate(-0.96 -0.06)"
         id="path83"
         style="fill:#000000;fill-opacity:1" />
      <path
         class="cls-7"
         d="M94.92,297.26c-18,0-18.23,0-15-18.81,5.12-29.88,10.71-59.68,15.62-89.59,1-6,3.47-7.88,9-7.49a49.36,49.36,0,0,0,8.85,0c26.32-2.91,41.53,12.61,46.24,37.39,5,26.14-7.41,56.79-29.72,71C121.64,295,111.13,297.26,94.92,297.26Z"
         transform="translate(-0.96 -0.06)"
         id="path85"
         style="fill:#fefefe;fill-opacity:1" />
      <path
         class="cls-2"
         d="M259.91,236.41H256c-21.93,0-22,0-18.32-20.94,1.74-9.91,4-19.73,5.61-29.65.62-3.79,2-6.29,6-6.29,11.77,0,23.72-1.17,35.26.48,22.61,3.25,30.26,26.05,15.52,44-6.84,8.31-15.44,12.81-26.4,12.45C269.07,236.28,264.49,236.41,259.91,236.41Z"
         transform="translate(-0.96 -0.06)"
         id="path87"
         style="fill:#fefefe;fill-opacity:1" />
    </g>
  </g>
</svg>
